Coordinates
version=1
nRows=26
nColumns=24
inDegrees=yes

Units are S.I. units (second, meters, Newtons, ...)
Angles are in degrees.

endheader
time	pelvis_tilt	pelvis_list	pelvis_rotation	pelvis_tx	pelvis_ty	pelvis_tz	hip_flexion_r	hip_adduction_r	hip_rotation_r	knee_angle_r	ankle_angle_r	subtalar_angle_r	mtp_angle_r	hip_flexion_l	hip_adduction_l	hip_rotation_l	knee_angle_l	ankle_angle_l	subtalar_angle_l	mtp_angle_l	lumbar_extension	lumbar_bending	lumbar_rotation
      3.40000000	     12.81849311	      0.05572344	     -5.27839613	     -0.51401753	      0.93945182	      0.03139539	    -25.03518104	     -1.22542165	      1.03113988	    -11.57599844	     31.07971117	     12.70694837	     14.39198017	      3.95622783	      0.32310563	    -26.10590404	     -1.57337384	      5.47796718	     29.68386710	     36.12980542	    -23.91246750	      1.98935760	      6.48918258
      3.40500000	     12.88629229	      0.01005694	     -5.38380414	     -0.50867246	      0.93884714	      0.03135786	    -25.19657897	     -1.29275185	      1.12094875	    -12.12053357	     31.18749622	     12.88621321	     14.46597528	      3.95338333	      0.33214769	    -25.28636135	     -2.25155910	      5.36623716	     28.61169047	     36.04893784	    -23.91826331	      1.87125179	      6.51018022
      3.41000000	     12.93772548	     -0.03196796	     -5.47131059	     -0.50331592	      0.93825889	      0.03125299	    -25.31035984	     -1.36215028	      1.16549161	    -12.73125352	     31.29160836	     13.10299516	     14.58550667	      3.95585440	      0.35177390	    -24.34484880	     -2.91785740	      5.18584264	     27.42694481	     35.95831355	    -23.90340813	      1.75948842	      6.51622876
      3.41500000	     12.98857339	     -0.05529821	     -5.53668073	     -0.49793651	      0.93770525	      0.03107297	    -25.40596903	     -1.44874656	      1.15490108	    -13.38011507	     31.37189710	     13.34891087	     14.76493988	      3.94571577	      0.40331976	    -23.30661046	     -3.55677208	      4.91175843	     26.14778370	     35.85603137	    -23.88278258	      1.63716808	      6.49564793
      3.42000000	     13.04168952	     -0.06989897	     -5.59052597	     -0.49256062	      0.93720673	      0.03083654	    -25.47142643	     -1.54730088	      1.10336372	    -14.09322247	     31.43025315	     13.65484941	     15.07254855	      3.92107932	      0.47286663	    -22.19255151	     -4.17266733	      4.59203313	     24.80828643	     35.75160414	    -23.86449934	      1.51073858	      6.45470531
      3.42500000	     13.09298008	     -0.06830651	     -5.63927079	     -0.48716301	      0.93677750	      0.03054968	    -25.52296783	     -1.66930461	      1.03167963	    -14.82086591	     31.42633416	     14.01785478	     15.57727643	      3.90048653	      0.56473388	    -21.06533699	     -4.80092200	      4.23871438	     23.38005088	     35.65031294	    -23.84003943	      1.37090824	      6.40780619
      3.43000000	     13.17435724	     -0.03877581	     -5.71328938	     -0.48175504	      0.93649406	      0.03029966	    -25.60386183	     -1.82651610	      1.05099388	    -15.53702963	     31.33580561	     14.22386202	     15.87372003	      3.82733891	      0.69591770	    -19.97535515	     -5.39057969	      3.78683090	     21.86598939	     35.51202365	    -23.84589445	      1.18518659	      6.35771725
      3.43500000	     13.22028695	      0.00560283	     -5.74543637	     -0.47635409	      0.93622435	      0.02987961	    -25.59485475	     -2.00008288	      0.92366973	    -16.35919715	     31.24944205	     14.61348013	     16.29133440	      3.79679366	      0.85017200	    -18.79264176	     -5.98225660	      3.35487285	     20.31586734	     35.36392206	    -23.81251900	      1.01505451	      6.28424574
      3.44000000	     13.29892263	      0.04748040	     -5.77694326	     -0.47094871	      0.93609590	      0.02945809	    -25.59451997	     -2.17842334	      0.77276810	    -17.20388893	     30.83422836	     14.91004069	     19.70358353	      3.72566866	      1.00072242	    -17.68100693	     -6.58018833	      2.95609602	     18.88831106	     35.26657230	    -23.81693906	      0.84207549	      6.23463946
      3.44500000	     13.35444614	      0.11265286	     -5.79694609	     -0.46558372	      0.93601667	      0.02897555	    -25.53375909	     -2.37827124	      0.62761767	    -18.12821902	     30.65447072	     15.30639605	     19.89076319	      3.68740419	      1.17787458	    -16.56655936	     -7.19202995	      2.55637691	     17.38890983	     35.09355654	    -23.79878507	      0.65424036	      6.14948761
      3.45000000	     13.40417999	      0.21009747	     -5.79211006	     -0.46017755	      0.93599005	      0.02838227	    -25.41371834	     -2.62991465	      0.31735166	    -19.15570267	     30.39625825	     15.98973849	     20.66468378	      3.66333615	      1.39070054	    -15.50121728	     -7.83550793	      2.27812870	     16.02675474	     34.85793397	    -23.76799170	      0.44992541	      6.02498500
      3.45500000	     13.44944168	      0.29444538	     -5.80146479	     -0.45486310	      0.93608587	      0.02779226	    -25.25893302	     -2.86197654	      0.13317635	    -20.21197327	     30.05077247	     16.38921279	     21.15288591	      3.62046954	      1.59394644	    -14.44836920	     -8.42712910	      1.94226795	     14.61521988	     34.62765727	    -23.74679917	      0.25746875	      5.94635553
      3.46000000	     13.52775467	      0.38059854	     -5.81491457	     -0.44949403	      0.93632285	      0.02722455	    -25.11411703	     -3.11401814	     -0.10018569	    -21.27986553	     29.31596148	     16.82453765	     25.16522262	      3.54140246	      1.78865866	    -13.56681632	     -9.06204117	      1.81180894	     13.51913859	     33.66349828	    -23.75508004	      0.05660640	      5.87584063
      3.46500000	     13.55568096	      0.47039381	     -5.77644334	     -0.44422249	      0.93652168	      0.02651224	    -24.85265378	     -3.35884275	     -0.40462603	    -22.49206268	     28.88418978	     17.43222981	     25.41655340	      3.54258231	      1.98651895	    -12.64894820	     -9.73976084	      1.73783387	     12.38925788	     33.45026343	    -23.72197970	     -0.11558370	      5.76685740
      3.47000000	     13.65078904	      0.59751686	     -5.75842001	     -0.43886511	      0.93692276	      0.02582216	    -24.64954753	     -3.66442364	     -0.72214531	    -23.68545945	     28.06129654	     17.89407807	     28.69168248	      3.41562126	      2.23285851	    -11.85274835	    -10.33165998	      1.77544668	     11.48678952	     32.03538336	    -23.74948855	     -0.33915789	      5.66305974
      3.47500000	     13.62133110	      0.68953660	     -5.71718813	     -0.43365183	      0.93719133	      0.02509067	    -24.22117067	     -3.93361080	     -1.07060749	    -25.06295556	     27.46439630	     18.67431805	     28.97010908	      3.47937975	      2.40720720	    -11.16291860	    -11.04370533	      1.87935209	     10.77200295	     31.82708261	    -23.66170003	     -0.50200985	      5.57299501
      3.48000000	     13.68185989	      0.80710617	     -5.67329809	     -0.42836782	      0.93767312	      0.02436907	    -23.89360119	     -4.23311261	     -1.41118717	    -26.37905265	     26.40900744	     19.11822262	     32.90220688	      3.38574312	      2.62034122	    -10.55592930	    -11.66197750	      2.15158610	     10.28394259	     29.76096185	    -23.66286039	     -0.69873208	      5.45779154
      3.48500000	     13.69044303	      0.91417992	     -5.63093698	     -0.42318210	      0.93811395	      0.02361532	    -23.43738205	     -4.53970093	     -1.76018292	    -27.84061383	     25.62027497	     19.88105795	     33.13324585	      3.35018970	      2.81008402	    -10.03793341	    -12.27363168	      2.37500685	      9.81575686	     29.55985756	    -23.61979202	     -0.87290914	      5.38911140
      3.49000000	     13.74546621	      1.02639160	     -5.57323911	     -0.41796955	      0.93868427	      0.02289861	    -23.02805118	     -4.84163799	     -2.09700067	    -29.24926074	     24.43079414	     20.28560402	     37.05718894	      3.23167022	      3.00083533	     -9.60805846	    -12.85430309	      2.83767375	      9.58859148	     27.14355014	    -23.62457400	     -1.05577082	      5.27663167
      3.49500000	     13.75583483	      1.14282083	     -5.53008888	     -0.41282648	      0.93923992	      0.02217388	    -22.50185306	     -5.17238202	     -2.43168105	    -30.78621088	     23.43451622	     21.01928058	     37.23492806	      3.13395185	      3.18139865	     -9.28189956	    -13.35683294	      3.12213121	      9.49855800	     26.98514321	    -23.58540756	     -1.23658618	      5.21068957
      3.50000000	     13.78949323	      1.23666262	     -5.46979549	     -0.40771033	      0.93987520	      0.02150024	    -21.99384304	     -5.46130733	     -2.73090041	    -32.26752522	     22.08437344	     21.35246431	     41.02972026	      2.99329196	      3.32963707	     -9.02810741	    -13.86075785	      3.68721676	      9.55854318	     24.29479853	    -23.57830293	     -1.39660444	      5.11262548
      3.50500000	     13.81971095	      1.37273749	     -5.42543643	     -0.40261140	      0.94052050	      0.02085032	    -21.43483284	     -5.81591200	     -3.04228173	    -33.83796563	     20.98444348	     21.93624036	     41.14962345	      2.80599378	      3.51544145	     -8.86483153	    -14.23080260	      4.02726317	      9.70807595	     24.15835167	    -23.56279389	     -1.60333554	      5.03799714
      3.51000000	     13.83465873	      1.47068644	     -5.37577491	     -0.39755393	      0.94120559	      0.02027036	    -20.84591008	     -6.10929314	     -3.28596876	    -35.35720489	     19.59257136	     22.13722101	     44.34471973	      2.61808402	      3.64330637	     -8.79421310	    -14.60337230	      4.63307096	     10.08458037	     21.27895522	    -23.53768615	     -1.77015336	      4.95107571
      3.51500000	     13.89789020	      1.59488811	     -5.32738340	     -0.39251840	      0.94195461	      0.01969391	    -20.28824071	     -6.44708651	     -3.54521474	    -36.90646472	     18.41133840	     22.55642016	     44.35840399	      2.32438525	      3.80517817	     -8.77261752	    -14.83343076	      4.96663040	     10.38220153	     21.21205339	    -23.56506780	     -1.96699371	      4.85977867
      3.52000000	     13.93021628	      1.71378914	     -5.28427152	     -0.38752068	      0.94267493	      0.01917126	    -19.67036091	     -6.77401160	     -3.77685989	    -38.46161748	     17.25970633	     22.84815238	     44.44336783	      2.03772620	      3.95207817	     -8.80687303	    -15.01145570	      5.32988382	     10.71502124	     21.08819853	    -23.56052306	     -2.15882862	      4.78087772
      3.52500000	     13.97791721	      1.79678892	     -5.24547454	     -0.38257859	      0.94345073	      0.01876272	    -19.06439259	     -7.03902132	     -3.93745645	    -39.94476386	     15.95051648	     22.78388470	     46.85216492	      1.71976967	      4.04057914	     -8.93471951	    -15.20530831	      6.05682484	     11.42768182	     16.97915659	    -23.58013388	     -2.32271884	      4.70176540
